<svg xmlns="http://www.w3.org/2000/svg" width="32" height="32" class="icon" p-id="16136" t="1691052695823" version="1.1" viewBox="0 0 1024 1024"><path fill="#000" d="M725.333333 725.333333H298.666667V298.666667h426.666666z" p-id="16137"/><path fill="#000" d="M213.333333 640v170.666667h170.666667v85.333333H213.333333a85.333333 85.333333 0 0 1-85.333333-85.333333v-170.666667h85.333333z m682.666667 0v170.666667a85.333333 85.333333 0 0 1-85.333333 85.333333h-170.666667v-85.333333h170.666667v-170.666667h85.333333zM810.666667 128a85.333333 85.333333 0 0 1 85.333333 85.333333v170.666667h-85.333333V213.333333h-170.666667V128h170.666667zM384 128v85.333333H213.333333v170.666667H128V213.333333a85.333333 85.333333 0 0 1 85.333333-85.333333h170.666667z" p-id="16138"/></svg>